<svg width="746" height="296" viewBox="0 0 746 296" fill="none" xmlns="http://www.w3.org/2000/svg">
<ellipse id="Ellipse 1" cx="154.5" cy="81" rx="80.5" ry="81" fill="#C4C4C4"/>
<ellipse id="Ellipse 3" cx="430.5" cy="267.5" rx="26.5" ry="28.5" fill="#C4C4C4"/>
<ellipse id="Ellipse 5" cx="643.5" cy="35.5" rx="26.5" ry="28.5" fill="#C4C4C4"/>
<ellipse id="Ellipse 7" cx="719.5" cy="177.5" rx="26.5" ry="28.5" fill="#C4C4C4"/>
<path id="Ellipse 2" d="M263 50C263 69.8823 246.435 86 226 86C205.565 86 189 69.8823 189 50C189 30.1177 205.565 14 226 14C246.435 14 263 30.1177 263 50Z" fill="#05466B"/>
<path id="Ellipse 4" d="M60 259C60 274.464 46.5685 287 30 287C13.4315 287 0 274.464 0 259C0 243.536 13.4315 231 30 231C46.5685 231 60 243.536 60 259Z" fill="#05466B"/>
<path id="Ellipse 8" d="M477 109C477 124.464 463.569 137 447 137C430.431 137 417 124.464 417 109C417 93.536 430.431 81 447 81C463.569 81 477 93.536 477 109Z" fill="#05466B"/>
<path id="Ellipse 6" d="M746 226C746 264.66 713.988 296 674.5 296C635.012 296 603 264.66 603 226C603 187.34 635.012 156 674.5 156C713.988 156 746 187.34 746 226Z" fill="#05466B"/>
</svg>
