<svg width="694" height="262" viewBox="0 0 694 262" fill="none" xmlns="http://www.w3.org/2000/svg">
<ellipse id="Ellipse 3" cx="430.5" cy="233.5" rx="26.5" ry="28.5" fill="#C4C4C4"/>
<ellipse id="Ellipse 5" cx="667.5" cy="28.5" rx="26.5" ry="28.5" fill="#C4C4C4"/>
<ellipse id="Ellipse 7" cx="173.5" cy="57.5" rx="26.5" ry="28.5" fill="#C4C4C4"/>
<path id="Ellipse 4" d="M60 225C60 240.464 46.5685 253 30 253C13.4315 253 0 240.464 0 225C0 209.536 13.4315 197 30 197C46.5685 197 60 209.536 60 225Z" fill="#05466B"/>
<path id="Ellipse 8" d="M517 86C517 101.464 503.569 114 487 114C470.431 114 457 101.464 457 86C457 70.536 470.431 58 487 58C503.569 58 517 70.536 517 86Z" fill="#05466B"/>
</svg>
