<svg width="636" height="491" viewBox="0 0 636 491" fill="none" xmlns="http://www.w3.org/2000/svg">
<path id="Polygon 1" d="M346.522 166.578C351.194 164.921 355.17 170.342 352.186 174.3L137.166 459.499C135.149 462.175 131.123 462.148 129.141 459.446L7.53808 293.649C5.5566 290.948 6.74078 287.1 9.89839 285.98L346.522 166.578Z" fill="#C4C4C4"/>
<g id="Polygon 3" filter="url(#filter0_d)">
<path d="M307.338 75.5779C306.354 70.9106 311.842 67.6478 315.473 70.7411L627.557 336.637C630.166 338.86 629.816 342.989 626.87 344.741L399.314 480.034C396.368 481.785 392.573 480.121 391.867 476.767L307.338 75.5779Z" fill="#808080"/>
</g>
<g id="Polygon 2" filter="url(#filter1_d)">
<path d="M352.994 161.792C357.686 160.094 361.697 165.562 358.669 169.528L137.173 459.559C135.147 462.211 131.141 462.173 129.167 459.481L7.51194 293.614C5.53825 290.923 6.70444 287.09 9.84252 285.955L352.994 161.792Z" fill="#05466B"/>
</g>
<defs>
<filter id="filter0_d" x="187.596" y="0.0457153" width="447.575" height="490.545" filterUnits="userSpaceOnUse" color-interpolation-filters="sRGB">
<feFlood flood-opacity="0" result="BackgroundImageFix"/>
<feColorMatrix in="SourceAlpha" type="matrix" values="0 0 0 0 0 0 0 0 0 0 0 0 0 0 0 0 0 0 127 0"/>
<feOffset dy="4"/>
<feGaussianBlur stdDeviation="2"/>
<feColorMatrix type="matrix" values="0 0 0 0 0 0 0 0 0 0 0 0 0 0 0 0 0 0 0.25 0"/>
<feBlend mode="normal" in2="BackgroundImageFix" result="effect1_dropShadow"/>
<feBlend mode="normal" in="SourceGraphic" in2="effect1_dropShadow" result="shape"/>
</filter>
<filter id="filter1_d" x="0.552948" y="76.5861" width="425.974" height="394.93" filterUnits="userSpaceOnUse" color-interpolation-filters="sRGB">
<feFlood flood-opacity="0" result="BackgroundImageFix"/>
<feColorMatrix in="SourceAlpha" type="matrix" values="0 0 0 0 0 0 0 0 0 0 0 0 0 0 0 0 0 0 127 0"/>
<feOffset dy="4"/>
<feGaussianBlur stdDeviation="2"/>
<feColorMatrix type="matrix" values="0 0 0 0 0 0 0 0 0 0 0 0 0 0 0 0 0 0 0.25 0"/>
<feBlend mode="normal" in2="BackgroundImageFix" result="effect1_dropShadow"/>
<feBlend mode="normal" in="SourceGraphic" in2="effect1_dropShadow" result="shape"/>
</filter>
</defs>
</svg>
