<svg width="746" height="289" viewBox="0 0 746 289" fill="none" xmlns="http://www.w3.org/2000/svg">
<ellipse id="Ellipse 1" cx="500.5" cy="87.5" rx="57.5" ry="54.5" transform="rotate(-0.829391 134.5 87.5)" fill="#C4C4C4"/>
<ellipse id="Ellipse 3" cx="430.5" cy="260.5" rx="26.5" ry="28.5" fill="#C4C4C4"/>
<ellipse id="Ellipse 5" cx="643.5" cy="28.5" rx="26.5" ry="28.5" fill="#C4C4C4"/>
<ellipse id="Ellipse 7" cx="719.5" cy="170.5" rx="26.5" ry="28.5" fill="#C4C4C4"/>
<path id="Ellipse 2" d="M223 51C223 70.8823 206.435 87 186 87C165.565 87 149 70.8823 149 51C149 31.1177 165.565 15 186 15C206.435 15 223 31.1177 223 51Z" fill="#05466B"/>
<path id="Ellipse 4" d="M60 252C60 267.464 46.5685 280 30 280C13.4315 280 0 267.464 0 252C0 236.536 13.4315 224 30 224C46.5685 224 60 236.536 60 252Z" fill="#05466B"/>
<path id="Ellipse 8" d="M477 102C477 117.464 463.569 130 447 130C430.431 130 417 117.464 417 102C417 86.536 430.431 74 447 74C463.569 74 477 86.536 477 102Z" fill="#05466B"/>
<path id="Ellipse 6" d="M746 219C746 257.66 713.988 289 674.5 289C635.012 289 603 257.66 603 219C603 180.34 635.012 149 674.5 149C713.988 149 746 180.34 746 219Z" fill="#05466B"/>
</svg>
