<svg width="700" height="463" viewBox="0 0 735 463" fill="none" xmlns="http://www.w3.org/2000/svg">
<g id="Group 1">
<path id="Vector" d="M512.781 41.7247C464.137 14.1829 410.714 -0.088548 356.592 0.000413362C246.441 0.000413362 147.961 57.9815 82.5496 149.082C194.56 120.592 389.579 71.2734 512.781 41.7247Z" fill="#F2F2F2"/>
<path id="Vector_2" d="M665.303 206.656L593.608 246.047L657.061 190.967C646.748 172.281 635.163 154.583 622.416 138.044L311.481 227.76L592.343 103.387C579.508 90.2414 565.878 78.1813 551.558 67.2993L77.766 155.89C27.4613 228.915 0.0387345 319.623 0 413.126H713.185C713.156 340.61 696.639 269.388 665.303 206.656V206.656Z" fill="#F2F2F2"/>
</g>
<g id="Group 2">
<path id="Vector_3" d="M291.774 250.097H240.366V304.959H291.774V250.097Z" fill="#3F3D56"/>
<path id="Vector_4" d="M194.515 250.097H143.106V304.959H194.515V250.097Z" fill="#3F3D56"/>
<path id="Vector_5" d="M336.931 410.632H4.16388V180.379H336.931V410.632ZM5.5533 408.97H335.541V182.042H5.5533V408.97Z" fill="#2F2E41"/>
<path id="Vector_6" d="M336.236 197.058H4.85858V198.72H336.236V197.058Z" fill="#2F2E41"/>
<path id="Vector_7" d="M269.001 286.781C267.237 287.444 265.359 287.541 263.554 287.062C264.7 285.316 266.243 284.004 267.999 283.284C269.754 282.563 271.646 282.466 273.446 283.002C272.267 284.706 270.734 286.009 269.001 286.781V286.781Z" fill="#6C63FF"/>
<path id="Vector_8" d="M269.687 276.512C271.56 276.512 273.078 274.695 273.078 272.454C273.078 270.213 271.56 268.396 269.687 268.396C267.814 268.396 266.296 270.213 266.296 272.454C266.296 274.695 267.814 276.512 269.687 276.512Z" fill="#6C63FF"/>
<path id="Vector_9" d="M259.372 304.728L258.694 304.712C258.708 303.814 259.132 282.634 266.101 276.779L266.49 277.444C259.803 283.061 259.375 304.512 259.372 304.728Z" fill="#6C63FF"/>
<path id="Vector_10" d="M171.742 286.781C169.978 287.444 168.099 287.541 166.294 287.062C167.44 285.316 168.984 284.004 170.739 283.284C172.494 282.563 174.386 282.466 176.187 283.002C175.007 284.706 173.474 286.009 171.742 286.781V286.781Z" fill="#6C63FF"/>
<path id="Vector_11" d="M172.427 276.512C174.3 276.512 175.818 274.695 175.818 272.454C175.818 270.213 174.3 268.396 172.427 268.396C170.554 268.396 169.036 270.213 169.036 272.454C169.036 274.695 170.554 276.512 172.427 276.512Z" fill="#6C63FF"/>
<path id="Vector_12" d="M162.112 304.728L161.434 304.712C161.449 303.814 161.873 282.634 168.841 276.779L169.231 277.444C162.543 283.061 162.116 304.512 162.112 304.728Z" fill="#6C63FF"/>
<path id="Vector_13" opacity="0.3" d="M100.729 250.097H49.3201V304.959H100.729V250.097Z" fill="#6C63FF"/>
<path id="Vector_14" opacity="0.3" d="M273.693 336.546H245.923V341.533H273.693V336.546Z" fill="#6C63FF"/>
<path id="Vector_15" opacity="0.3" d="M284.039 325.74H245.923V330.727H284.039V325.74Z" fill="#6C63FF"/>
<path id="Vector_16" opacity="0.3" d="M286.217 314.934H245.923V319.921H286.217V314.934Z" fill="#6C63FF"/>
<path id="Vector_17" opacity="0.3" d="M82.6475 336.546H54.8778V341.533H82.6475V336.546Z" fill="#6C63FF"/>
<path id="Vector_18" opacity="0.3" d="M95.171 314.934H54.8778V319.921H95.171V314.934Z" fill="#6C63FF"/>
<path id="Vector_19" opacity="0.3" d="M92.993 325.74H54.8778V330.727H92.993V325.74Z" fill="#6C63FF"/>
<path id="Vector_20" d="M30.5629 192.848C32.0976 192.848 33.3417 191.359 33.3417 189.523C33.3417 187.686 32.0976 186.198 30.5629 186.198C29.0282 186.198 27.784 187.686 27.784 189.523C27.784 191.359 29.0282 192.848 30.5629 192.848Z" fill="#6C63FF"/>
<path id="Vector_21" d="M22.9211 192.848C24.4558 192.848 25.6999 191.359 25.6999 189.523C25.6999 187.686 24.4558 186.198 22.9211 186.198C21.3863 186.198 20.1422 187.686 20.1422 189.523C20.1422 191.359 21.3863 192.848 22.9211 192.848Z" fill="#6C63FF"/>
<path id="Vector_22" d="M15.2792 192.848C16.814 192.848 18.0581 191.359 18.0581 189.523C18.0581 187.686 16.814 186.198 15.2792 186.198C13.7445 186.198 12.5004 187.686 12.5004 189.523C12.5004 191.359 13.7445 192.848 15.2792 192.848Z" fill="#6C63FF"/>
<g id="Group" opacity="0.3">
<path id="Vector_23" opacity="0.3" d="M188.957 314.934H148.664V319.921H188.957V314.934Z" fill="#6C63FF"/>
<path id="Vector_24" opacity="0.3" d="M186.779 325.74H148.664V330.727H186.779V325.74Z" fill="#6C63FF"/>
<path id="Vector_25" opacity="0.3" d="M176.433 336.546H148.664V341.533H176.433V336.546Z" fill="#6C63FF"/>
<path id="Vector_26" opacity="0.3" d="M188.957 314.934H148.664V319.921H188.957V314.934Z" fill="#6C63FF"/>
<path id="Vector_27" opacity="0.3" d="M186.779 325.74H148.664V330.727H186.779V325.74Z" fill="#6C63FF"/>
<path id="Vector_28" opacity="0.3" d="M176.433 336.546H148.664V341.533H176.433V336.546Z" fill="#6C63FF"/>
</g>
</g>
<g id="Group 3">
<path id="Vector_29" opacity="0.1" d="M691.928 411.463C691.928 424.317 592.086 463 468.926 463C345.765 463 245.923 424.317 245.923 411.463C245.923 398.609 345.765 416.451 468.926 416.451C592.086 416.451 691.928 398.609 691.928 411.463Z" fill="black"/>
<path id="Vector_30" d="M468.926 434.738C592.086 434.738 691.928 424.317 691.928 411.463C691.928 398.609 592.086 388.189 468.926 388.189C345.765 388.189 245.923 398.609 245.923 411.463C245.923 424.317 345.765 434.738 468.926 434.738Z" fill="#3F3D56"/>
<path id="Vector_31" d="M703.808 383.736C689.806 393.614 684.294 413.472 684.294 413.472C684.294 413.472 701.485 417.314 715.487 407.435C729.489 397.556 735 377.698 735 377.698C735 377.698 717.81 373.857 703.808 383.736Z" fill="#3F3D56"/>
<path id="Vector_32" d="M708.714 389.86C700.873 406.897 684.446 414.072 684.446 414.072C684.446 414.072 680.731 393.626 688.572 376.589C696.413 359.552 712.84 352.377 712.84 352.377C712.84 352.377 716.555 372.824 708.714 389.86Z" fill="#6C63FF"/>
<path id="Vector_33" d="M691.928 411.463C691.928 424.317 592.086 463 468.926 463C345.765 463 245.923 424.317 245.923 411.463C245.923 398.609 345.765 416.451 468.926 416.451C592.086 416.451 691.928 398.609 691.928 411.463Z" fill="#3F3D56"/>
</g>
<g id="Group 4">
<path id="Vector_34" d="M449.126 275.556L447.737 310.468C447.737 310.468 448.432 356.186 442.179 359.511C439.018 361.19 432.669 364.565 426.798 368.255C422.394 371.015 418.26 373.941 415.954 376.46C415.342 377.082 414.815 377.814 414.391 378.629C411.612 384.448 393.549 383.617 389.381 379.461C385.213 375.304 387.992 384.448 384.518 386.11C381.156 387.723 376.494 374.54 379.35 354.856C379.44 354.199 379.544 353.534 379.655 352.861C382.844 333.784 377.835 288.091 378.606 270.435C378.651 269.087 378.769 267.743 378.961 266.412C381.045 253.112 407.638 226.047 412.612 237.577C418.74 251.807 432.815 238.807 435.232 232.331C449.126 231.5 453.989 251.45 453.989 251.45L449.126 275.556Z" fill="#3F3D56"/>
<path id="Vector_35" opacity="0.1" d="M406.851 222.046C406.851 222.046 415.821 239.067 412.617 243.676C409.414 248.285 436.65 248.4 436.65 248.4C436.65 248.4 432.559 223.639 433.763 217.941L406.851 222.046Z" fill="black"/>
<path id="Vector_36" opacity="0.1" d="M445.212 361.838C445.798 363.944 506.206 361.137 506.792 360.435C507.303 359.556 507.736 358.615 508.082 357.628H445.171C445.067 359.03 445.081 360.44 445.212 361.838Z" fill="black"/>
<path id="Vector_37" d="M440.79 340.392C440.79 340.392 475.525 292.181 486.641 294.674C497.756 297.168 502.619 312.13 502.619 312.13L508.872 386.11C508.872 386.11 486.641 388.604 486.641 386.11C486.641 383.617 482.472 330.417 482.472 330.417C482.472 330.417 449.821 416.866 432.453 359.511L440.79 340.392Z" fill="#2F2E41"/>
<path id="Vector_38" d="M435.866 134.661C433.741 138.293 430.59 140.884 426.995 141.958C420.792 143.945 426.945 155.098 426.945 155.098C426.945 155.098 424.707 151.043 427.934 146.747C431.161 142.452 436.354 139.516 435.866 134.661Z" fill="#FF6584"/>
<path id="Vector_39" d="M384.518 263.918L378.266 266.412C378.266 266.412 361.593 339.561 381.045 352.03C400.497 364.498 422.033 376.967 422.727 373.642C423.422 370.317 431.064 357.017 428.98 355.355C426.896 353.692 396.328 333.742 396.328 333.742V277.218L384.518 263.918Z" fill="#3F3D56"/>
<path id="Vector_40" d="M425.845 167.153C430.174 167.153 433.683 162.954 433.683 157.774C433.683 152.594 430.174 148.396 425.845 148.396C421.516 148.396 418.007 152.594 418.007 157.774C418.007 162.954 421.516 167.153 425.845 167.153Z" fill="#FF6584"/>
<path id="Vector_41" d="M435.852 165.635C429.463 162.743 418.823 161.277 413.349 162.279L414.1 155.72C419.362 158.974 429.953 160.504 436.603 159.076L435.852 165.635Z" fill="#3F3D56"/>
<path id="Vector_42" opacity="0.1" d="M465.152 341.488L465.31 341.451L464.566 349.909H449.903V341.488H465.152Z" fill="black"/>
<path id="Vector_43" opacity="0.1" d="M499.168 335.172L500.341 354.821H473.949V335.172H499.168Z" fill="black"/>
<path id="Vector_44" d="M522.041 274.122L525.559 290.261L510.311 349.207L506.792 330.962L522.041 274.122Z" fill="#F2F2F2"/>
<path id="Vector_45" d="M523.442 272.533L527.254 291.344C527.296 291.554 527.29 291.774 527.235 291.979L509.946 356.625C509.877 356.881 509.738 357.101 509.55 357.248C509.362 357.396 509.138 357.462 508.914 357.436C508.691 357.409 508.481 357.292 508.321 357.103C508.161 356.915 508.06 356.666 508.035 356.399L505.643 331.216C505.627 331.049 505.642 330.879 505.685 330.719L521.554 272.446C521.621 272.203 521.751 271.992 521.927 271.846C522.102 271.7 522.312 271.626 522.526 271.636C522.74 271.646 522.945 271.738 523.11 271.9C523.275 272.062 523.392 272.284 523.442 272.533V272.533Z" fill="#D0CDE1"/>
<path id="Vector_46" d="M586.679 391.929C586.679 391.929 588.069 386.942 590.153 386.942C592.237 386.942 608.91 390.267 610.994 389.435C613.078 388.604 637.393 386.942 633.225 401.073C629.057 415.204 615.162 416.866 615.162 416.866C615.162 416.866 590.153 413.541 586.679 414.372C583.206 415.204 570.701 414.372 572.785 410.216C574.869 406.06 588.069 398.579 586.679 391.929Z" fill="#2F2E41"/>
<path id="Vector_47" d="M505.398 389.435C505.398 389.435 494.283 394.423 490.809 393.592C487.336 392.76 483.862 396.085 483.862 401.073C483.862 406.06 479.694 417.697 485.946 418.529C492.198 419.36 517.903 417.697 523.46 420.191C523.46 420.191 548.47 421.022 546.386 408.554C544.302 396.085 533.881 396.917 533.881 396.917C533.881 396.917 505.398 395.254 505.398 389.435Z" fill="#2F2E41"/>
<path id="Vector_48" d="M546.386 380.292L592.932 389.435L581.121 410.216C581.121 410.216 548.47 396.917 540.133 396.917C531.797 396.917 546.386 380.292 546.386 380.292Z" fill="#FFB8B8"/>
<path id="Vector_49" d="M487.336 376.967V396.916L504.009 392.76L502.619 378.629L487.336 376.967Z" fill="#FFB8B8"/>
<path id="Vector_50" d="M421.186 228.215C436.719 228.215 449.311 213.148 449.311 194.562C449.311 175.977 436.719 160.91 421.186 160.91C405.653 160.91 393.061 175.977 393.061 194.562C393.061 213.148 405.653 228.215 421.186 228.215Z" fill="#FF6584"/>
<path id="Vector_51" d="M406.851 222.046C406.851 222.046 415.821 239.067 412.617 243.676C409.414 248.285 436.65 248.4 436.65 248.4C436.65 248.4 432.559 223.639 433.763 217.941L406.851 222.046Z" fill="#FFB8B8"/>
<path id="Vector_52" d="M419.254 230.669C430.764 230.669 440.095 219.504 440.095 205.732C440.095 191.959 430.764 180.795 419.254 180.795C407.743 180.795 398.412 191.959 398.412 205.732C398.412 219.504 407.743 230.669 419.254 230.669Z" fill="#FFB8B8"/>
<path id="Vector_53" d="M384.518 372.811C384.518 372.811 385.213 414.372 406.054 416.866C426.896 419.36 449.821 400.241 449.821 400.241L487.335 378.737C487.335 378.737 531.797 406.891 544.996 399.41C544.996 399.41 558.891 381.954 549.859 376.967C540.828 371.979 549.165 376.967 549.165 376.967L495.672 343.717C495.672 343.717 485.251 340.392 467.189 349.536C449.126 358.68 424.811 362.836 424.811 362.836L384.518 372.811Z" fill="#2F2E41"/>
<path id="Vector_54" opacity="0.1" d="M393.897 294.259L392.508 334.158L429.327 354.939L395.286 334.158L393.897 294.259Z" fill="black"/>
<path id="Vector_55" d="M445.212 361.838C445.798 363.944 506.206 361.137 506.792 360.435C507.303 359.556 507.736 358.615 508.082 357.628C508.634 356.225 509.138 354.821 509.138 354.821L506.792 332.099L446.971 329.559C446.971 329.559 445.476 348.814 445.171 357.628C445.067 359.03 445.081 360.44 445.212 361.838Z" fill="#D0CDE1"/>
<path id="Vector_56" d="M452.6 322.936L471.357 334.574C471.357 334.574 482.472 320.443 489.42 331.249C496.367 342.055 469.273 345.38 469.273 345.38C469.273 345.38 445.653 338.73 444.958 329.586C444.263 320.443 452.6 322.936 452.6 322.936Z" fill="#FFB8B8"/>
<path id="Vector_57" d="M423.488 167.983C423.488 167.983 415.48 183.92 396.859 189.887C378.237 195.853 396.706 229.336 396.706 229.336C396.706 229.336 389.99 217.16 399.677 204.266C409.365 191.372 424.954 182.557 423.488 167.983Z" fill="#FF6584"/>
<path id="Vector_58" opacity="0.1" d="M426.798 368.255C425.082 372.137 423.068 376.169 422.727 377.798C422.498 378.904 419.955 378.264 415.954 376.46C407.93 372.827 394.022 364.507 381.045 356.186C380.446 355.806 379.879 355.361 379.35 354.856C379.44 354.199 379.544 353.534 379.655 352.861C382.844 333.784 377.835 288.091 378.606 270.435L384.518 268.075L396.328 281.374V337.899C396.328 337.899 426.896 357.848 428.98 359.511C430.043 360.359 428.577 364.224 426.798 368.255Z" fill="black"/>
<path id="Vector_59" d="M421.338 353.692L432.453 357.017C432.453 357.017 444.958 338.73 458.158 345.38C471.357 352.03 441.484 365.33 441.484 365.33C441.484 365.33 425.506 375.304 419.254 366.992C413.001 358.68 421.338 353.692 421.338 353.692Z" fill="#FFB8B8"/>
<path id="Vector_60" d="M424.124 167.014C424.124 167.014 431.817 188.906 440.263 190.975C448.709 193.045 448.068 227.636 434.86 232.823C434.86 232.823 444.491 212.544 436.259 198.944C428.027 185.344 422.827 174.593 424.124 167.014Z" fill="#FF6584"/>
<path id="Vector_61" d="M445.653 243.969C446.347 244.8 453.989 251.45 453.989 251.45C453.989 251.45 456.073 283.037 453.295 289.687C450.516 296.337 448.432 296.337 450.516 299.662C452.6 302.987 455.379 300.493 452.6 306.312C449.821 312.13 447.042 311.299 449.126 313.793C451.21 316.286 450.516 317.118 450.516 317.118L458.852 325.43C458.852 325.43 453.738 335.177 447.264 334.46C440.79 333.742 435.232 296.337 435.232 296.337L445.653 243.969Z" fill="#3F3D56"/>
</g>
</svg>
