

<svg width="603" height="334" viewBox="0 0 603 334" fill="none" xmlns="http://www.w3.org/2000/svg">
<g id="undraw_progressive_app_m9ms 1">
<g id="Group2">
<path id="Vector" d="M361.954 9.51782H224.237V6.78154H161.792V9.51782H23.5077C22.2844 9.51782 21.073 9.7501 19.9428 10.2014C18.8126 10.6527 17.7857 11.3142 16.9207 12.148C16.0556 12.9819 15.3695 13.9719 14.9013 15.0614C14.4332 16.1509 14.1922 17.3187 14.1922 18.498V200.286C14.1922 202.668 15.1737 204.952 16.9207 206.636C18.6676 208.32 21.0371 209.266 23.5077 209.266H361.954C364.424 209.266 366.794 208.32 368.541 206.636C370.288 204.952 371.269 202.668 371.269 200.286V18.498C371.269 17.3187 371.028 16.1509 370.56 15.0614C370.092 13.9719 369.406 12.9819 368.541 12.148C367.676 11.3142 366.649 10.6527 365.519 10.2014C364.388 9.7501 363.177 9.51782 361.954 9.51782V9.51782Z" fill="#3F3D56"/>
<path id="Vector_2" d="M358.78 25.3883H26.6814V205.983H358.78V25.3883Z" fill="#08798E"/>
<path id="Vector_3" d="M192.447 20.4629C194.328 20.4629 195.853 18.9929 195.853 17.1794C195.853 15.366 194.328 13.8959 192.447 13.8959C190.566 13.8959 189.041 15.366 189.041 17.1794C189.041 18.9929 190.566 20.4629 192.447 20.4629Z" fill="#08798E"/>
<path id="Vector_4" opacity="0.1" d="M263.805 205.983H26.6815V25.3884L263.805 205.983Z" fill="black"/>
<path id="Vector_5" d="M78.6449 192.469C96.2751 192.469 110.567 178.691 110.567 161.696C110.567 144.7 96.2751 130.922 78.6449 130.922C61.0146 130.922 46.7225 144.7 46.7225 161.696C46.7225 178.691 61.0146 192.469 78.6449 192.469Z" fill="#F2F2F2"/>
<path id="Vector_6" d="M300.956 122.784H269.934V129.033H300.956V122.784Z" fill="#3F3D56"/>
<path id="Vector_7" d="M338.46 74.1329H232.431V76.8109H338.46V74.1329Z" fill="#3F3D56"/>
<path id="Vector_8" d="M338.46 82.6134H232.431V85.2915H338.46V82.6134Z" fill="#3F3D56"/>
<path id="Vector_9" d="M338.46 91.0939H232.431V93.772H338.46V91.0939Z" fill="#3F3D56"/>
<path id="Vector_10" d="M338.46 99.5745H232.431V102.253H338.46V99.5745Z" fill="#3F3D56"/>
<path id="Vector_11" d="M338.46 108.055H232.431V110.733H338.46V108.055Z" fill="#3F3D56"/>
<path id="Vector_12" d="M338.46 29.0522H325.496V41.5498H338.46V29.0522Z" fill="#F2F2F2"/>
<path id="Vector_13" d="M344.479 47.3523H328.737V32.1765H344.479V47.3523ZM329.421 46.6925H343.795V32.8364H329.421V46.6925Z" fill="#3F3D56"/>
<path id="Vector_14" d="M380.594 202.699H348.183V200.448C348.183 200.39 348.171 200.332 348.148 200.277C348.125 200.223 348.09 200.174 348.047 200.133C348.004 200.091 347.953 200.058 347.897 200.036C347.841 200.013 347.781 200.002 347.72 200.002H336.608C336.547 200.002 336.487 200.013 336.431 200.036C336.374 200.058 336.323 200.091 336.28 200.133C336.237 200.174 336.203 200.223 336.18 200.277C336.157 200.332 336.145 200.39 336.145 200.448V202.699H329.2V200.448C329.2 200.39 329.188 200.332 329.164 200.277C329.141 200.223 329.107 200.174 329.064 200.133C329.021 200.091 328.97 200.058 328.914 200.036C328.858 200.013 328.797 200.002 328.737 200.002H317.624C317.564 200.002 317.503 200.013 317.447 200.036C317.391 200.058 317.34 200.091 317.297 200.133C317.254 200.174 317.22 200.223 317.197 200.277C317.173 200.332 317.161 200.39 317.161 200.448V202.699H310.216V200.448C310.216 200.39 310.204 200.332 310.181 200.277C310.158 200.223 310.124 200.174 310.081 200.133C310.038 200.091 309.987 200.058 309.93 200.036C309.874 200.013 309.814 200.002 309.753 200.002H298.641C298.58 200.002 298.52 200.013 298.464 200.036C298.408 200.058 298.357 200.091 298.314 200.133C298.271 200.174 298.237 200.223 298.213 200.277C298.19 200.332 298.178 200.39 298.178 200.448V202.699H291.233V200.448C291.233 200.39 291.221 200.332 291.198 200.277C291.174 200.223 291.14 200.174 291.097 200.133C291.054 200.091 291.003 200.058 290.947 200.036C290.891 200.013 290.831 200.002 290.77 200.002H279.658C279.597 200.002 279.537 200.013 279.48 200.036C279.424 200.058 279.373 200.091 279.33 200.133C279.287 200.174 279.253 200.223 279.23 200.277C279.207 200.332 279.195 200.39 279.195 200.448V202.699H272.25V200.448C272.25 200.39 272.238 200.332 272.214 200.277C272.191 200.223 272.157 200.174 272.114 200.133C272.071 200.091 272.02 200.058 271.964 200.036C271.908 200.013 271.847 200.002 271.787 200.002H260.674C260.613 200.002 260.553 200.013 260.497 200.036C260.441 200.058 260.39 200.091 260.347 200.133C260.304 200.174 260.27 200.223 260.247 200.277C260.223 200.332 260.211 200.39 260.211 200.448V202.699H253.266V200.448C253.266 200.39 253.254 200.332 253.231 200.277C253.208 200.223 253.174 200.174 253.131 200.133C253.088 200.091 253.036 200.058 252.98 200.036C252.924 200.013 252.864 200.002 252.803 200.002H241.691C241.63 200.002 241.57 200.013 241.514 200.036C241.458 200.058 241.406 200.091 241.363 200.133C241.321 200.174 241.286 200.223 241.263 200.277C241.24 200.332 241.228 200.39 241.228 200.448V202.699H234.283V200.448C234.283 200.39 234.271 200.332 234.247 200.277C234.224 200.223 234.19 200.174 234.147 200.133C234.104 200.091 234.053 200.058 233.997 200.036C233.941 200.013 233.881 200.002 233.82 200.002H146.774C146.713 200.002 146.653 200.013 146.597 200.036C146.541 200.058 146.49 200.091 146.447 200.133C146.404 200.174 146.369 200.223 146.346 200.277C146.323 200.332 146.311 200.39 146.311 200.448V202.699H139.366V200.448C139.366 200.39 139.354 200.332 139.331 200.277C139.307 200.223 139.273 200.174 139.23 200.133C139.187 200.091 139.136 200.058 139.08 200.036C139.024 200.013 138.964 200.002 138.903 200.002H127.791C127.73 200.002 127.67 200.013 127.613 200.036C127.557 200.058 127.506 200.091 127.463 200.133C127.42 200.174 127.386 200.223 127.363 200.277C127.34 200.332 127.328 200.39 127.328 200.448V202.699H120.382V200.448C120.382 200.39 120.37 200.332 120.347 200.277C120.324 200.223 120.29 200.174 120.247 200.133C120.204 200.091 120.153 200.058 120.097 200.036C120.04 200.013 119.98 200.002 119.919 200.002H108.807C108.746 200.002 108.686 200.013 108.63 200.036C108.574 200.058 108.523 200.091 108.48 200.133C108.437 200.174 108.403 200.223 108.379 200.277C108.356 200.332 108.344 200.39 108.344 200.448V202.699H101.399V200.448C101.399 200.39 101.387 200.332 101.364 200.277C101.341 200.223 101.306 200.174 101.263 200.133C101.22 200.091 101.169 200.058 101.113 200.036C101.057 200.013 100.997 200.002 100.936 200.002H89.8238C89.763 200.002 89.7028 200.013 89.6466 200.036C89.5905 200.058 89.5394 200.091 89.4964 200.133C89.4534 200.174 89.4193 200.223 89.396 200.277C89.3728 200.332 89.3608 200.39 89.3608 200.448V202.699H82.4157V200.448C82.4157 200.39 82.4037 200.332 82.3804 200.277C82.3572 200.223 82.3231 200.174 82.2801 200.133C82.2371 200.091 82.186 200.058 82.1299 200.036C82.0737 200.013 82.0135 200.002 81.9527 200.002H70.8404C70.7796 200.002 70.7194 200.013 70.6632 200.036C70.6071 200.058 70.556 200.091 70.513 200.133C70.47 200.174 70.4359 200.223 70.4127 200.277C70.3894 200.332 70.3774 200.39 70.3774 200.448V202.699H63.4323V200.448C63.4323 200.39 63.4203 200.332 63.3971 200.277C63.3738 200.223 63.3397 200.174 63.2967 200.133C63.2537 200.091 63.2026 200.058 63.1465 200.036C63.0903 200.013 63.0301 200.002 62.9693 200.002H51.857C51.7962 200.002 51.736 200.013 51.6799 200.036C51.6237 200.058 51.5726 200.091 51.5297 200.133C51.4867 200.174 51.4525 200.223 51.4293 200.277C51.406 200.332 51.394 200.39 51.394 200.448V202.699H44.4489V200.448C44.4489 200.39 44.4369 200.332 44.4137 200.277C44.3904 200.223 44.3563 200.174 44.3133 200.133C44.2703 200.091 44.2193 200.058 44.1631 200.036C44.1069 200.013 44.0467 200.002 43.9859 200.002H32.8737C32.8129 200.002 32.7527 200.013 32.6965 200.036C32.6403 200.058 32.5893 200.091 32.5463 200.133C32.5033 200.174 32.4692 200.223 32.4459 200.277C32.4226 200.332 32.4107 200.39 32.4107 200.448V202.699H11.1122C8.16508 202.699 5.33865 203.828 3.2547 205.837C1.17075 207.846 2.80775e-06 210.57 0 213.412V218.255C8.42324e-06 221.096 1.17076 223.821 3.25471 225.83C5.33865 227.839 8.16509 228.968 11.1122 228.968H380.594C383.541 228.968 386.367 227.839 388.451 225.83C390.535 223.821 391.706 221.096 391.706 218.255V213.412C391.706 210.57 390.535 207.846 388.451 205.837C386.367 203.828 383.541 202.699 380.594 202.699Z" fill="#3F3D56"/>
<path id="Vector_15" d="M86.3719 180.916C78.4153 180.916 70.6374 178.642 64.0217 174.38C57.406 170.119 52.2498 164.062 49.2049 156.976C46.16 149.89 45.3634 142.092 46.9156 134.569C48.4679 127.046 52.2993 120.136 57.9255 114.712C63.5517 109.289 70.7198 105.595 78.5235 104.099C86.3273 102.602 94.416 103.37 101.767 106.306C109.118 109.241 115.401 114.212 119.821 120.589C124.242 126.967 126.601 134.465 126.601 142.135C126.589 152.417 122.347 162.274 114.805 169.545C107.263 176.815 97.0376 180.905 86.3719 180.916ZM86.3719 104.374C78.6247 104.374 71.0514 106.589 64.6099 110.738C58.1683 114.887 53.1477 120.785 50.183 127.685C47.2182 134.584 46.4425 142.177 47.9539 149.502C49.4653 156.827 53.196 163.555 58.6741 168.836C64.1522 174.117 71.1317 177.713 78.7301 179.17C86.3284 180.627 94.2043 179.879 101.362 177.021C108.519 174.163 114.637 169.323 118.941 163.114C123.245 156.904 125.542 149.603 125.542 142.135C125.531 132.124 121.4 122.526 114.057 115.447C106.713 108.368 96.757 104.386 86.3719 104.374V104.374Z" fill="#3F3D56"/>
</g>
<g id="Group3">
<path id="Vector_16" d="M130.653 296.477C147.973 296.477 162.013 282.942 162.013 266.246C162.013 249.55 147.973 236.015 130.653 236.015C113.334 236.015 99.294 249.55 99.294 266.246C99.294 282.942 113.334 296.477 130.653 296.477Z" fill="#F2F2F2"/>
<path id="Vector_17" d="M445.259 16.6061H310.279V17.6267H445.259V16.6061Z" fill="#3F3D56"/>
<path id="Vector_18" d="M603 286.034H215V287.054H603V286.034Z" fill="#3F3D56"/>
<path id="Vector_19" d="M236.967 332.979H101.987V334H236.967V332.979Z" fill="#3F3D56"/>
<path id="Vector_20" d="M264.137 280.654H249.316V294.942H264.137V280.654Z" fill="#08798E"/>
<path id="Vector_21" d="M273.135 286.777H255.138V269.428H273.135V286.777ZM255.921 286.023H272.353V270.182H255.921V286.023Z" fill="#3F3D56"/>
<path id="Vector_22" d="M436.17 11.2262H421.348V25.514H436.17V11.2262Z" fill="#08798E"/>
<path id="Vector_23" d="M445.168 17.3495H427.171V0H445.168V17.3495ZM427.954 16.5952H444.386V0.754328H427.954V16.5952Z" fill="#3F3D56"/>
<path id="Vector_24" d="M585.442 280.654H570.62V294.942H585.442V280.654Z" fill="#08798E"/>
<path id="Vector_25" d="M594.44 286.777H576.443V269.428H594.44V286.777ZM577.225 286.023H593.658V270.182H577.225V286.023Z" fill="#3F3D56"/>
<path id="Vector_26" d="M169.477 334C160.369 334 151.465 331.396 143.892 326.518C136.319 321.64 130.416 314.707 126.931 306.595C123.445 298.483 122.533 289.556 124.31 280.945C126.087 272.333 130.473 264.423 136.913 258.214C143.354 252.006 151.56 247.777 160.493 246.064C169.426 244.351 178.685 245.231 187.1 248.591C195.515 251.951 202.708 257.641 207.768 264.942C212.828 272.242 215.529 280.825 215.529 289.606C215.515 301.376 210.659 312.66 202.025 320.983C193.392 329.305 181.687 333.987 169.477 334ZM169.477 246.232C160.578 246.232 151.879 248.776 144.48 253.542C137.081 258.308 131.314 265.082 127.909 273.007C124.503 280.933 123.612 289.654 125.348 298.068C127.084 306.481 131.37 314.21 137.662 320.276C143.954 326.341 151.971 330.472 160.699 332.146C169.427 333.82 178.474 332.961 186.695 329.678C194.917 326.395 201.944 320.836 206.888 313.703C211.831 306.57 214.47 298.184 214.47 289.606C214.457 278.106 209.712 267.082 201.277 258.95C192.842 250.819 181.406 246.245 169.477 246.232V246.232Z" fill="#3F3D56"/>
<path id="Vector_27" d="M502.956 271.746C497.198 271.746 491.57 270.1 486.782 267.016C481.994 263.932 478.263 259.549 476.059 254.421C473.856 249.292 473.279 243.649 474.403 238.205C475.526 232.761 478.299 227.76 482.37 223.835C486.442 219.91 491.629 217.237 497.277 216.154C502.924 215.072 508.778 215.627 514.098 217.752C519.417 219.876 523.964 223.473 527.163 228.088C530.362 232.704 532.07 238.13 532.07 243.681C532.061 251.121 528.991 258.255 523.533 263.516C518.075 268.778 510.675 271.738 502.956 271.746V271.746ZM502.956 216.636C497.408 216.636 491.984 218.222 487.37 221.194C482.757 224.165 479.161 228.389 477.037 233.331C474.914 238.273 474.358 243.711 475.441 248.957C476.523 254.203 479.195 259.022 483.119 262.804C487.042 266.586 492.041 269.162 497.483 270.206C502.925 271.249 508.566 270.714 513.692 268.667C518.819 266.62 523.2 263.153 526.283 258.706C529.366 254.258 531.011 249.03 531.011 243.681C531.003 236.51 528.044 229.636 522.785 224.566C517.525 219.496 510.394 216.644 502.956 216.636Z" fill="#3F3D56"/>
<path id="Vector_28" d="M549.008 228.372H161.008V229.393H549.008V228.372Z" fill="#3F3D56"/>
<path id="Vector_29" d="M135.753 292.053C153.072 292.053 167.112 278.518 167.112 261.822C167.112 245.126 153.072 231.591 135.753 231.591C118.433 231.591 104.393 245.126 104.393 261.822C104.393 278.518 118.433 292.053 135.753 292.053Z" fill="#08798E"/>
</g>
<g id="Group1">
<path id="Vector_30" d="M559.595 118.364H558.336V85.1129C558.336 82.5857 557.82 80.0832 556.816 77.7483C555.813 75.4135 554.343 73.292 552.489 71.5049C550.635 69.7179 548.434 68.3004 546.012 67.3332C543.59 66.3661 540.994 65.8683 538.373 65.8683H465.297C462.675 65.8683 460.079 66.3661 457.657 67.3332C455.235 68.3004 453.034 69.7179 451.181 71.5049C449.327 73.292 447.856 75.4135 446.853 77.7483C445.85 80.0832 445.333 82.5857 445.333 85.1129V267.528C445.333 270.056 445.85 272.558 446.853 274.893C447.856 277.228 449.327 279.349 451.181 281.136C453.034 282.923 455.235 284.341 457.657 285.308C460.079 286.275 462.675 286.773 465.297 286.773H538.373C540.994 286.773 543.59 286.275 546.012 285.308C548.434 284.341 550.635 282.923 552.489 281.136C554.343 279.349 555.813 277.228 556.816 274.893C557.82 272.558 558.336 270.056 558.336 267.528V142.032H559.595V118.364Z" fill="#3F3D56"/>
<path id="Vector_31" d="M554.085 86.244V268.393C554.085 272.205 552.515 275.861 549.72 278.557C546.924 281.252 543.133 282.767 539.179 282.768H465.75C461.796 282.767 458.004 281.252 455.209 278.557C452.413 275.861 450.843 272.205 450.844 268.393V86.244C450.844 82.4331 452.415 78.7784 455.21 76.0837C458.005 73.389 461.797 71.8749 465.75 71.8745H474.658C474.22 72.9112 474.053 74.0359 474.171 75.1496C474.29 76.2633 474.691 77.3317 475.339 78.2608C475.987 79.1899 476.862 79.9511 477.887 80.4775C478.912 81.0038 480.055 81.279 481.217 81.279H523.082C524.243 81.279 525.387 81.0038 526.412 80.4775C527.437 79.9512 528.312 79.1899 528.96 78.2608C529.607 77.3317 530.008 76.2633 530.127 75.1496C530.246 74.0359 530.079 72.9112 529.64 71.8745H539.179C543.132 71.8749 546.923 73.389 549.718 76.0837C552.514 78.7784 554.084 82.4331 554.085 86.244V86.244Z" fill="#08798E"/>
<path id="Vector_32" d="M513.401 191.976H491.527V198.225H513.401V191.976Z" fill="#3F3D56"/>
<path id="Vector_33" d="M539.846 143.325H465.083V146.003H539.846V143.325Z" fill="#3F3D56"/>
<path id="Vector_34" d="M539.846 151.805H465.083V154.483H539.846V151.805Z" fill="#3F3D56"/>
<path id="Vector_35" d="M539.846 160.286H465.083V162.964H539.846V160.286Z" fill="#3F3D56"/>
<path id="Vector_36" d="M539.846 168.766H465.083V171.444H539.846V168.766Z" fill="#3F3D56"/>
<path id="Vector_37" d="M539.846 177.247H465.083V179.925H539.846V177.247Z" fill="#3F3D56"/>
<path id="Vector_38" d="M505.076 107.76H492.112V120.258H505.076V107.76Z" fill="#F2F2F2"/>
<path id="Vector_39" d="M497.074 110.885V126.061H512.817V110.885H497.074ZM512.134 125.403H497.757V111.544H512.134V125.403Z" fill="#3F3D56"/>
<path id="Vector_40" opacity="0.1" d="M554.085 248.942V268.393C554.085 272.205 552.515 275.861 549.72 278.557C546.924 281.252 543.133 282.767 539.179 282.768H465.75C461.796 282.767 458.004 281.252 455.209 278.557C452.413 275.861 450.843 272.205 450.844 268.393V170.313L512.707 217.427L513.765 218.233L525.273 226.994L526.348 227.816L554.085 248.942Z" fill="black"/>
<path id="Vector_41" d="M496.112 276.865C508.937 276.865 519.333 266.843 519.333 254.48C519.333 242.117 508.937 232.095 496.112 232.095C483.288 232.095 472.892 242.117 472.892 254.48C472.892 266.843 483.288 276.865 496.112 276.865Z" fill="#F2F2F2"/>
</g>
</g>
</svg>
